# xmcd
#
# Track frame offsets:
#	150
#	16565
#	39093
#	48094
#	66344
#	79744
#
# Disc length: 1258 seconds
#
# Revision: 1
# Processed by: cddbd v1.5.1PL0 Copyright (c) Steve Scherf et al.
# Submitted via: audiograbber 1.82.02
#
DISCID=3704e806
DTITLE=Jessica Paige - Back Of Our Minds
DYEAR=2004
DGENRE=Folk
TTITLE0=Under My Skin
TTITLE1=No Guarantees
TTITLE2=Back Of Our Minds
TTITLE3=Hate's A Baby
TTITLE4=It's Crazy Baby
TTITLE5=Dirty Secrets
EXTD=
EXTT0=
EXTT1=
EXTT2=
EXTT3=
EXTT4=
EXTT5=
PLAYORDER=
